<svg version="1.1" id="Layer_1" xmlns="http://www.w3.org/2000/svg" xmlns:xlink="http://www.w3.org/1999/xlink" x="0px" y="0px"
	 width="100%" viewBox="0 0 1024 1024" enable-background="new 0 0 1024 1024" xml:space="preserve">
<path fill="#000000" opacity="1.000000" stroke="none" 
	d="
M563.941162,108.055023 
	C620.999146,164.378113 677.791443,220.467056 734.602661,276.536896 
	C755.357422,297.020813 776.145935,317.470520 796.939148,337.915375 
	C817.045776,357.685364 826.997620,382.121796 830.482544,409.709747 
	C831.408752,417.041656 831.319946,424.326752 831.322449,431.637238 
	C831.359253,540.463928 831.402588,649.290649 831.306824,758.117249 
	C831.284424,783.541992 823.195557,806.201965 806.204041,825.316345 
	C790.089355,843.444275 769.674500,853.105835 745.468811,853.286987 
	C695.642700,853.659912 645.811890,853.390808 595.983154,853.453674 
	C556.832947,853.502991 517.682861,853.743469 478.532684,853.735657 
	C436.388428,853.727295 394.241272,853.798096 352.100952,853.330017 
	C316.535126,852.934937 290.134857,836.523987 272.947113,805.519836 
	C264.462830,790.215393 260.931885,773.410034 260.891785,756.081238 
	C260.705811,675.753357 260.527954,595.423401 260.908203,515.096924 
	C261.135406,467.093353 276.821198,424.208954 307.657013,387.410614 
	C339.125916,349.856750 379.369965,326.478973 427.825409,318.942963 
	C472.770782,311.952789 516.151367,317.947449 556.268860,340.567261 
	C607.063538,369.207336 638.249390,412.389221 650.437256,469.401703 
	C653.939209,485.783234 655.300720,502.368622 654.179016,518.977844 
	C650.964844,566.566895 633.136475,607.947693 599.982605,642.474121 
	C571.225708,672.421448 536.557495,691.800903 495.772278,699.801086 
	C479.438293,703.005127 462.818939,705.560974 446.260986,702.182678 
	C429.390228,698.740479 421.610229,682.476929 428.756134,667.192322 
	C433.114044,657.871033 440.934174,654.029114 450.864655,653.627380 
	C470.658478,652.826599 490.395172,651.818420 509.071503,644.021423 
	C560.157776,622.694031 591.130432,584.459778 601.191589,530.522644 
	C611.678040,474.306030 585.517944,417.958679 536.312622,387.601990 
	C511.639923,372.380402 484.668152,365.401123 455.916382,366.501678 
	C385.663300,369.190948 327.128326,420.300720 314.228119,487.218842 
	C312.205750,497.709595 311.300507,508.240448 311.309479,518.920227 
	C311.376801,599.081909 311.320648,679.243713 311.365631,759.405457 
	C311.377136,779.913208 326.480316,799.003540 345.736328,803.173279 
	C345.898651,803.208374 346.052765,803.282959 346.215424,803.315186 
	C357.175934,805.485840 358.656311,804.291260 358.656982,793.233215 
	C358.662567,697.905701 358.221558,602.575012 358.901031,507.252350 
	C359.151642,472.096924 374.576721,443.738831 405.269745,425.505035 
	C461.090912,392.343445 536.726868,421.707306 548.969116,490.951447 
	C558.760376,546.332458 524.998291,592.535217 472.117371,603.038330 
	C452.355988,606.963257 433.051514,604.911072 414.586548,596.517822 
	C407.674072,593.375793 407.353333,593.525696 407.352600,600.983459 
	C407.346283,666.479492 407.410950,731.975647 407.231476,797.471191 
	C407.217041,802.734070 408.944733,803.782104 413.819763,803.775146 
	C507.813812,803.640930 601.808105,803.672729 695.802368,803.670105 
	C711.134766,803.669678 726.467407,803.719055 741.799500,803.653931 
	C761.239319,803.571289 777.597473,789.323792 780.730103,770.065857 
	C781.403076,765.928955 781.659790,761.822510 781.658936,757.654358 
	C781.637329,647.494446 781.658264,537.334473 781.615479,427.174561 
	C781.606995,405.334778 773.990845,386.474945 758.550293,370.972717 
	C704.570557,316.777344 650.052673,263.126160 595.348999,209.662262 
	C568.536621,183.457504 541.915710,157.056870 515.157043,130.796967 
	C511.715057,127.419106 508.175415,124.073151 504.320343,121.195709 
	C488.626587,109.481850 470.200897,110.675705 456.202698,124.322533 
	C439.380981,140.722061 422.671600,157.237228 405.962799,173.752121 
	C365.075806,214.164551 324.238190,254.626999 283.335693,295.023743 
	C268.720886,309.457825 245.139908,304.727844 239.393677,286.242462 
	C236.100357,275.647949 239.076691,266.496857 246.737717,258.895813 
	C258.329010,247.395294 270.218414,236.195740 281.850891,224.736115 
	C326.719543,180.534180 371.980133,136.731781 416.459564,92.132423 
	C448.233215,60.273094 502.013702,56.331440 536.885559,83.031769 
	C546.566284,90.443962 554.785095,99.513329 563.941162,108.055023 
z"/>
</svg>