<?xml version="1.0" encoding="UTF-8"?>
<svg id="Layer_1" xmlns="http://www.w3.org/2000/svg" version="1.1" viewBox="0 0 334.09 568.1">
  <defs>
    <style>
      .st0 {
        fill: #fff;
      }

      .st1 {
        fill: #294c4b;
      }

      .st2 {
        fill: #05c1b7;
      }
    </style>
  </defs>
  <g>
    <path class="st2" d="M186.09,325.17c0-39.32-31.99-71.32-71.32-71.32s-71.25,31.93-71.31,71.21c0,0,0,.02,0,.03v190.41c0,5.6,4.54,10.14,10.14,10.14s10.14-4.54,10.14-10.14v-140.59c12.96,13.3,31.05,21.57,51.04,21.57,39.32,0,71.32-31.99,71.32-71.32Z"/>
    <path class="st0" d="M63.74,325.17c0-28.14,22.9-51.04,51.04-51.04s51.04,22.9,51.04,51.04-22.9,51.04-51.04,51.04-51.04-22.9-51.04-51.04Z"/>
  </g>
  <path class="st1" d="M318.57,182.68L152.78,15.82C142.65,5.62,129.15,0,114.77,0h-.02c-14.37,0-27.87,5.61-38,15.8L3.12,89.84c-3.95,3.97-3.93,10.39.04,14.34,3.97,3.95,10.39,3.93,14.34-.04L91.14,30.1c6.3-6.33,14.69-9.82,23.62-9.82h0c8.94,0,17.33,3.5,23.62,9.83l165.78,166.85c6.24,6.31,9.66,14.67,9.64,23.57v293.97c0,18.37-14.95,33.32-33.32,33.32H53.6c-18.37,0-33.32-14.95-33.32-33.32v-187.33c0-51.91,42.93-96.1,93.74-96.5,26.33-.24,51.88,10.76,69.89,30.07,18.26,19.59,27.16,45.17,25.06,72.04-3.53,45.23-40.24,82.4-85.39,86.47-8.26.74-16.53.44-24.56-.91-5.52-.94-10.75,2.8-11.68,8.32-.93,5.52,2.8,10.75,8.32,11.68,9.74,1.64,19.75,2.01,29.73,1.1,54.87-4.95,99.49-50.13,103.78-105.09,2.55-32.6-8.26-63.65-30.44-87.44-21.87-23.46-52.77-36.68-84.88-36.53-61.72.48-113.86,53.96-113.86,116.78v187.33c0,29.55,24.04,53.6,53.6,53.6h226.89c29.55,0,53.6-24.04,53.6-53.6V220.56c.05-14.27-5.46-27.72-15.52-37.88Z"/>
</svg>